<?xml version="1.0" encoding="utf-8"?>
<!-- Generator: Adobe Illustrator 24.3.0, SVG Export Plug-In . SVG Version: 6.00 Build 0)  -->
<svg version="1.1" id="Layer_1" xmlns="http://www.w3.org/2000/svg" xmlns:xlink="http://www.w3.org/1999/xlink" x="0px" y="0px"
	 viewBox="0 0 512 512" style="enable-background:new 0 0 512 512;" xml:space="preserve">
<style type="text/css">
	.st0{fill:#FF9900;}
	.st1{fill:#221F1F;}
</style>
<g id="XMLID_1_">
	<path id="path8" class="st0" d="M199.82,283.4c-18.68,13.84-45.8,21.17-69.19,21.17c-32.8,0-62.27-12.18-84.55-32.24
		c-1.8-1.52-0.14-3.74,1.94-2.49c24.08,13.98,53.83,22.42,84.55,22.42c20.76,0,43.59-4.29,64.48-13.15
		C200.23,277.59,202.86,281.05,199.82,283.4"/>
	<path id="path10" class="st0" d="M207.57,274.4c-2.35-3.04-15.78-1.38-21.86-0.69c-1.8,0.28-2.08-1.38-0.42-2.49
		c10.66-7.47,28.23-5.4,30.3-2.77c2.08,2.49-0.55,20.06-10.52,28.51c-1.52,1.25-3.04,0.55-2.35-1.11
		C204.94,290.18,209.92,277.59,207.57,274.4"/>
	<path id="path12" class="st1" d="M186.12,218.08v-7.33c0-1.11,0.83-1.8,1.8-1.8h32.8c1.11,0,1.94,0.69,1.94,1.8v6.23
		c0,1.11-0.83,2.49-2.49,4.57l-17.02,24.22c6.37-0.14,13.01,0.83,18.68,4.01c1.25,0.69,1.66,1.8,1.8,2.91v7.75
		c0,1.11-1.25,2.35-2.35,1.66c-10.1-5.26-23.52-5.81-34.59,0c-1.11,0.55-2.35-0.55-2.35-1.66v-7.47c0-1.25,0-3.18,1.25-4.98
		l19.65-28.23h-17.16C186.95,219.88,186.12,219.19,186.12,218.08"/>
	<path id="path14" class="st1" d="M66.7,263.75h-9.96c-0.97-0.14-1.66-0.83-1.8-1.66v-51.2c0-0.97,0.83-1.8,1.94-1.8h9.27
		c0.97,0,1.8,0.83,1.8,1.66v6.64h0.14c2.49-6.5,6.92-9.41,13.15-9.41s10.1,3.04,13.01,9.41c2.35-6.5,7.89-9.41,13.7-9.41
		c4.15,0,8.72,1.66,11.49,5.54c3.18,4.29,2.49,10.52,2.49,16.05v32.24c0,0.97-0.83,1.8-1.94,1.8h-9.96c-0.97-0.14-1.8-0.83-1.8-1.8
		v-27.12c0-2.21,0.14-7.61-0.28-9.55c-0.69-3.46-2.91-4.43-5.81-4.43c-2.35,0-4.98,1.66-5.95,4.15c-0.97,2.63-0.97,6.92-0.97,9.82
		v27.12c0,0.97-0.83,1.8-1.94,1.8H83.3c-0.97-0.14-1.8-0.83-1.8-1.8v-27.12c0-5.67,0.97-14.11-6.09-14.11
		c-7.2,0-6.92,8.16-6.92,14.11v27.12C68.5,262.92,67.67,263.75,66.7,263.75"/>
	<path id="path16" class="st1" d="M250.88,207.98c14.81,0,22.83,12.73,22.83,28.78c0,15.64-8.86,27.95-22.83,27.95
		c-14.53,0-22.42-12.73-22.42-28.51C228.46,220.3,236.49,207.98,250.88,207.98 M250.88,218.36c-7.33,0-7.75,9.96-7.75,16.19
		c0,6.23-0.14,19.65,7.75,19.65c7.75,0,8.03-10.79,8.03-17.3c0-4.29-0.14-9.41-1.52-13.56
		C256.28,219.74,254.06,218.36,250.88,218.36"/>
	<path id="path18" class="st1" d="M292.81,263.75h-9.96c-0.97-0.14-1.8-0.83-1.8-1.8v-51.2c0.14-0.97,0.97-1.66,1.94-1.66h9.27
		c0.83,0,1.52,0.69,1.8,1.38v7.89h0.14c2.77-7.06,6.64-10.38,13.56-10.38c4.43,0,8.86,1.66,11.62,6.09
		c2.63,4.15,2.63,10.93,2.63,15.91v32.24c-0.14,0.83-0.97,1.66-1.94,1.66h-9.96c-0.97-0.14-1.66-0.69-1.8-1.66v-27.81
		c0-5.54,0.69-13.84-6.23-13.84c-2.49,0-4.7,1.66-5.81,4.15c-1.38,3.18-1.52,6.23-1.52,9.69v27.54
		C294.75,262.92,293.92,263.75,292.81,263.75"/>
	<path id="path20" class="st1" d="M328.23,259.6c0-2.63,2.21-4.7,4.84-4.7c2.77,0,4.84,2.08,4.84,4.7s-2.21,4.7-4.84,4.7
		C330.45,264.3,328.23,262.23,328.23,259.6"/>
	<path id="path22" class="st1" d="M433.95,263.75c-0.97,0-1.8-0.83-1.8-1.8v-51.2c0-0.97,0.83-1.66,1.8-1.66h3.6
		c0.97,0,1.8,0.69,1.94,1.66v7.47c2.63-5.95,7.47-10.52,13.56-10.52h0.42h0.42c6.5,0,11.21,4.84,13.01,11.76
		c2.77-6.92,7.89-11.76,14.81-11.76h0.42h0.42c4.84,0,9.55,3.04,11.9,7.89c2.35,4.57,2.21,10.52,2.21,15.64v30.72
		c0,0.97-0.83,1.8-1.8,1.8h-4.43c-0.97,0-1.66-0.69-1.8-1.66v-31c0-3.6,0.14-7.61-1.25-10.93c-1.52-3.46-4.43-5.54-7.47-5.67
		c-3.46,0.14-6.64,2.77-8.72,6.09c-2.63,4.43-2.63,8.44-2.63,13.56v27.95c-0.14,0.83-0.83,1.52-1.8,1.52h-4.29
		c-0.97,0-1.8-0.83-1.8-1.8v-32.8c0-3.04-0.14-6.5-1.52-9.27c-1.66-3.04-4.57-5.12-7.47-5.26c-3.18,0.14-6.37,2.63-8.16,5.4
		c-2.49,3.6-2.91,8.03-2.91,12.45v29.47c0,0.97-0.83,1.8-1.8,1.8h-4.84"/>
	<path id="path24" class="st1" d="M403.93,264.86c-14.11,0-20.48-14.39-20.48-28.78c0-15.22,7.47-28.37,21.73-28.37h0.42H406
		c13.84,0,20.76,13.98,20.76,28.37c0,15.22-7.61,28.78-22,28.78h-0.42H403.93 M404.9,257.8c4.7-0.14,8.3-3.04,10.52-7.89
		c1.94-4.29,2.35-9.27,2.35-13.98c0-5.12-0.55-10.52-3.04-14.94c-2.21-3.87-5.95-6.37-9.82-6.5c-4.43,0.14-8.3,3.18-10.38,7.75
		c-1.8,4.01-2.35,9.27-2.35,13.7c0,4.98,0.69,10.66,2.63,14.94C396.87,255.03,400.74,257.66,404.9,257.8"/>
	<path id="path26" class="st1" d="M359.65,257.52c6.37-0.14,9.69-5.26,11.07-11.9c0.28-0.83,0.97-1.52,1.8-1.52h4.15
		c0.97,0,1.94,0.83,1.8,1.66c-1.94,11.21-8.72,18.82-18.4,18.82h-0.28h-0.42c-14.11,0-20.06-14.11-20.06-28.37
		c0-14.25,6.09-28.78,20.2-28.78h0.42h0.42c9.82,0,16.74,7.47,18.27,18.68c0,0.83-0.83,1.52-1.66,1.66h-4.43
		c-0.97-0.14-1.52-0.97-1.66-1.8c-1.11-6.23-4.7-11.21-10.66-11.49c-9.55,0.28-12.32,12.04-12.32,21.03
		C347.88,244.51,350.1,257.25,359.65,257.52"/>
	<path id="XMLID_2_" class="st1" d="M177.82,254.34c-1.8-2.49-3.74-4.57-3.74-9.27v-15.5c0-6.64,0.42-12.59-4.43-17.16
		c-3.87-3.74-10.1-4.98-14.94-4.98c-9.41,0-20.06,3.6-22.28,15.22c-0.28,1.25,0.69,1.94,1.52,2.08l9.69,0.97
		c0.97,0,1.52-0.97,1.8-1.8c0.83-4.01,4.15-5.95,8.03-5.95c2.08,0,4.43,0.69,5.54,2.63c1.38,2.08,1.25,4.84,1.25,7.2v1.25
		c-5.81,0.69-13.28,1.11-18.68,3.46c-6.23,2.63-10.66,8.16-10.66,16.33c0,10.38,6.5,15.5,14.94,15.5c7.06,0,10.93-1.66,16.47-7.2
		c1.8,2.63,2.35,3.87,5.67,6.64c0.69,0.42,1.66,0.42,2.35-0.28l0,0c1.94-1.8,5.67-4.98,7.61-6.64
		C178.51,256.28,178.37,255.31,177.82,254.34z M158.17,249.91c-1.52,2.77-4.15,4.57-6.92,4.57c-3.87,0-6.09-2.91-6.09-7.2
		c0-8.44,7.61-10.1,14.81-10.1v2.21C160.1,243.13,160.1,246.45,158.17,249.91z"/>
	<path id="XMLID_3_" class="st1" d="M47.05,254.34c-1.8-2.49-3.74-4.57-3.74-9.27v-15.5c0-6.64,0.42-12.59-4.43-17.16
		c-3.87-3.74-10.1-4.98-14.94-4.98c-9.41,0-20.06,3.6-22.28,15.22c-0.28,1.25,0.69,1.94,1.52,2.08l9.69,0.97
		c0.83,0,1.52-0.97,1.66-1.8c0.83-4.01,4.15-5.95,8.03-5.95c2.08,0,4.43,0.69,5.54,2.63c1.38,2.08,1.25,4.84,1.25,7.2v1.25
		c-5.81,0.69-13.28,1.11-18.68,3.46C4.43,235.24,0,240.78,0,248.94c0,10.38,6.5,15.5,14.94,15.5c7.06,0,10.93-1.66,16.47-7.2
		c1.8,2.63,2.35,3.87,5.67,6.64c0.69,0.42,1.66,0.42,2.35-0.28l0,0c1.94-1.8,5.67-4.98,7.61-6.64
		C47.88,256.28,47.74,255.31,47.05,254.34z M27.54,249.91c-1.52,2.77-4.15,4.57-6.92,4.57c-3.87,0-6.09-2.91-6.09-7.2
		c0-8.44,7.61-10.1,14.81-10.1v2.21l0,0C29.34,243.13,29.47,246.45,27.54,249.91z"/>
	<path id="path32" class="st1" d="M506.74,209.64c2.35,0,4.43,1.94,4.43,4.43c0,2.35-1.94,4.43-4.43,4.43
		c-2.35,0-4.43-1.94-4.43-4.43C502.45,211.58,504.39,209.64,506.74,209.64 M506.74,208.81c-2.77,0-5.26,2.21-5.26,5.26
		c0,2.91,2.35,5.26,5.26,5.26c2.91,0,5.26-2.35,5.26-5.26C512,211.03,509.65,208.81,506.74,208.81 M504.8,216.98h1.11v-2.35h0.97
		c0.42,0,0.55,0.14,0.55,0.55c0,0.14,0.14,1.52,0.28,1.8h1.25c-0.14-0.28-0.28-1.11-0.28-1.52c-0.14-0.69-0.14-1.25-0.97-1.38
		c0.42-0.14,1.11-0.42,1.11-1.38c0-1.52-1.38-1.52-2.08-1.52h-1.94L504.8,216.98 M505.91,212h0.97c0.28,0,0.83,0,0.83,0.83
		c0,0.28-0.14,0.83-0.83,0.83h-0.97V212"/>
</g>
</svg>
